              ***********************************************

                PublicHash - Largest Bittorrent Community
      
                          http://publichash.com/
    
              ***********************************************
Drift (II) (2013)
-  Drama | Sport  -  2 May 2013 (Australia)
IMDB Rating: 6.0

In the 70s two brothers battle killer waves, conservative society and ruthless bikers to kick-start the modern surf industry.

Directors : Ben Nott, Morgan O'Neill
Writers : Tim Duffy (story), Morgan O'Neill (screenplay)
 
http://imgsure.com/?p=960938 
http://imgsure.com/?p=950257

Source - Drift.2013.480p.BRRip.XviD.AC3-PTpOWeR (Thumbs Up + Respect)

General
Complete name                            : Drift 2013 BRRip AAC x264-SSDD.mp4
Format                                   : MPEG-4
Format profile                           : Base Media
Codec ID                                 : isom
File size                                : 500 MiB
Duration                                 : 1h 47mn
Overall bit rate mode                    : Variable
Overall bit rate                         : 650 Kbps

Video
ID                                       : 1
Format                                   : AVC
Format/Info                              : Advanced Video Codec
Format profile                           : High@L4.1
Format settings, CABAC                   : Yes
Format settings, ReFrames                : 4 frames
Codec ID                                 : avc1
Codec ID/Info                            : Advanced Video Coding
Duration                                 : 1h 47mn
Bit rate                                 : 582 Kbps
Maximum bit rate                         : 2 329 Kbps
Width                                    : 720 pixels
Height                                   : 304 pixels
Display aspect ratio                     : 2.35:1
Frame rate mode                          : Constant
Frame rate                               : 24.000 fps
Color space                              : YUV
Chroma subsampling                       : 4:2:0
Bit depth                                : 8 bits
Scan type                                : Progressive
Bits/(Pixel*Frame)                       : 0.111
Stream size                              : 448 MiB (90%)
Writing library                          : x264 core 130 r2273 b3065e6

Audio
ID                                       : 2
Format                                   : AAC
Format/Info                              : Advanced Audio Codec
Format profile                           : LC
Codec ID                                 : 40
Duration                                 : 1h 47mn
Bit rate mode                            : Variable
Bit rate                                 : 64.0 Kbps
Maximum bit rate                         : 74.0 Kbps
Channel(s)                               : 2 channels
Channel positions                        : Front: L R
Sampling rate                            : 48.0 KHz
Compression mode                         : Lossy
Stream size                              : 49.2 MiB (10%)


IMDB Link - http://www.imdb.com/title/tt1714833/